<svg id="Ebene_1" data-name="Ebene 1" xmlns="http://www.w3.org/2000/svg" viewBox="0 0 801.5 801.5"><defs><style>.cls-1{opacity:0;}.cls-2{fill:#3296fa;}.cls-3{fill:#b3b3b3;}</style></defs><rect class="cls-1" width="801.5" height="801.5"/><rect class="cls-2" x="7176.76" y="6953.99" width="43" height="489.65" rx="19.5" transform="translate(-3904.19 -8827.37) rotate(20)"/><path class="cls-3" d="M6858.69,7144l4.58-4.56C6861.68,7140.84,6860.16,7142.37,6858.69,7144Z" transform="translate(-6800.44 -6799.56)"/><path class="cls-3" d="M6863.28,7259.61l-4.59-4.56C6860.16,7256.63,6861.68,7258.16,6863.28,7259.61Z" transform="translate(-6800.44 -6799.56)"/><path class="cls-2" d="M6950.28,7275.68l-49.79-49.52v-.3a35,35,0,0,1-1-51.83v-.21l50.77-50.5L7064,7010.23a23.76,23.76,0,0,0,0-33.74h0a24.07,24.07,0,0,0-33.92,0l-163.78,162.9-4.58,4.56a81.21,81.21,0,0,0-21.89,55.55h0a81.21,81.21,0,0,0,21.89,55.55l4.59,4.56,163.77,162.9a24.07,24.07,0,0,0,33.92,0h0a23.76,23.76,0,0,0,0-33.74Z" transform="translate(-6800.44 -6799.56)"/><path class="cls-2" d="M7449.6,7275.68q24.75-24.77,49.52-49.52v-.3a35.1,35.1,0,0,0,1-51.83v-.21l-50.5-50.5-113.11-113.09a23.85,23.85,0,0,1,0-33.74h0a23.86,23.86,0,0,1,33.75,0l162.92,162.9,4.56,4.56a81.4,81.4,0,0,1,21.78,55.55h0a81.43,81.43,0,0,1-21.77,55.55l-4.57,4.56-162.92,162.9a23.86,23.86,0,0,1-33.75,0h0a23.85,23.85,0,0,1,0-33.74Z" transform="translate(-6800.44 -6799.56)"/></svg>